<svg xmlns="http://www.w3.org/2000/svg" width="731" height="94" viewBox="0 0 731 94">
  <g fill="none" fill-rule="evenodd" transform="translate(-4 -23)">
    <path fill="#054A91" d="M7 113.8L6.3 106.3C18.8 104.4 21.7 102.7 25.1 94.7L24.2 94.5C18.5 82 9.1 59.3 4.2 47.3L12.5 46.8C17.4 59.3 23 73.5 28.5 86L29.5 86C33.2 76 40.2 53.9 42.8 47L50.6 47C46.5 59.1 41.3 73.7 34.9 89.9 28.3 107.2 23.6 111.8 7 113.8zM84.2 39.1L75.9 39.1 76.5 25.5 85.1 25.5 84.2 39.1zM102.4 96L58.1 96 58.1 89.8 76.5 89.8 76.5 53.5 58.2 52.7 58.8 47 84.6 47 84.6 89.8 103 89.8 102.4 96zM150.6 97.1C119.9 97 111.6 88.1 111.6 72.2 111.6 57.3 122 45.8 134.7 45.8 148.1 45.8 154.9 56.6 153.1 72.8L119.6 73.6C120.4 85.2 127.7 89.6 151.4 90.2L150.6 97.1zM133.3 52.5C125.2 52.5 120.2 58.1 119.6 68.6 125.2 68.4 138.6 68 145.5 67.8 145.4 58.4 141.5 52.5 133.3 52.5z"/>
    <polygon fill="#054A91" points="206.2 96 166.8 96 166.8 89.8 182.7 89.8 182.7 32.7 167.6 32 168.3 26.2 190.9 26.2 190.9 89.8 206.9 89.8"/>
    <path fill="#054A91" d="M239.1 90.5C243.2 90.5 247 88.7 250 86.3 249.8 77.8 249.7 67.9 249.7 54.2 246.9 53.3 244.2 52.8 241.6 52.8 232.6 52.8 225.6 59.5 225.6 71.9 225.6 84.4 231.2 90.5 239.1 90.5zM250.9 96.2L250.4 91.1C246.9 94.4 242 97.2 236 97.2 225.4 97.2 217.6 88.5 217.6 74 217.6 56.1 230.4 45.9 245.3 45.9 246.8 45.9 248.3 46 249.7 46.2L249.7 26.1 257.8 25.4 257.8 47.2C257.8 69.2 258 84.7 258.5 95.8L250.9 96.2zM304.4 23.5L309.9 28.6C289.4 44.6 282.1 57.4 282.1 70.1 282.1 82.8 289.5 95.6 309.6 111.5L304 116.6C282.6 99 274.1 84.6 274.1 70.4 274.1 55.9 282.8 41.2 304.4 23.5z"/>
    <polygon fill="#054A91" points="329.7 113.9 329.7 26.5 362.4 26.5 362.4 33.1 337.5 33.1 337.5 107.3 362.8 107.3 362.1 113.9"/>
    <path stroke="#054A91" stroke-width="2.5" d="M19.5629035,41.7977755 C18.8639737,41.9301372 18.1368293,42 17.3902439,42 C11.9616889,42 7.56097561,38.3063492 7.56097561,33.75 C7.56097561,33.3312898 7.59813906,32.9198651 7.66984845,32.5179226 C3.20807451,31.3071372 0,27.9508659 0,24 C0,20.6928825 2.24780747,17.8023808 5.59717093,16.2381007 C4.91668202,15.1786305 4.53658537,13.996604 4.53658537,12.75 C4.53658537,8.19365081 9.6143315,4.5 15.8780488,4.5 C16.9724146,4.5 18.0305782,4.61275001 19.0317839,4.82315188 C20.5820917,1.97732929 24.0037325,0 27.9756098,0 C30.9363607,0 33.5913651,1.09873029 35.3934147,2.83690249 C37.1736973,1.99142927 39.3006366,1.5 41.5853659,1.5 C47.8490831,1.5 52.9268293,5.19365081 52.9268293,9.75 C52.9268293,9.7882853 52.9264708,9.82650969 52.925756,9.86467149 C56.5237052,11.1220429 58.9756098,13.6216699 58.9756098,16.5 C58.9756098,18.121169 58.19779,19.6222017 56.8754747,20.8488032 C59.9619571,22.3230384 62,24.8633896 62,27.75 C62,32.1309816 57.3056027,35.714395 51.3762897,35.9837464 C50.933952,40.1963805 46.7193123,43.5 41.5853659,43.5 C38.8350128,43.5 36.348496,42.5518779 34.5644599,41.0238011 C32.5059567,42.5518779 29.636899,43.5 26.4634146,43.5 C23.8670953,43.5 21.4745393,42.8653888 19.5629035,41.7977755 Z M9.82926829,57 C7.74136253,57 6.04878049,55.9926407 6.04878049,54.75 C6.04878049,53.5073593 7.74136253,52.5 9.82926829,52.5 C11.9171741,52.5 13.6097561,53.5073593 13.6097561,54.75 C13.6097561,55.9926407 11.9171741,57 9.82926829,57 Z M18.902439,52.5 C15.979371,52.5 13.6097561,51.1568542 13.6097561,49.5 C13.6097561,47.8431458 15.979371,46.5 18.902439,46.5 C21.8255071,46.5 24.195122,47.8431458 24.195122,49.5 C24.195122,51.1568542 21.8255071,52.5 18.902439,52.5 Z" transform="translate(368 44)"/>
    <path fill="#054A91" d="M441.9,113.2 C448.5,105.4 449.2,95.4 444,84.4 L455.2,83.8 C459,95.1 454.8,106.4 446.1,114.5 L441.9,113.2 Z"/>
    <path stroke="#054A91" stroke-width="2.5" d="M19.5629035,41.7977755 C18.8639737,41.9301372 18.1368293,42 17.3902439,42 C11.9616889,42 7.56097561,38.3063492 7.56097561,33.75 C7.56097561,33.3312898 7.59813906,32.9198651 7.66984845,32.5179226 C3.20807451,31.3071372 0,27.9508659 0,24 C0,20.6928825 2.24780747,17.8023808 5.59717093,16.2381007 C4.91668202,15.1786305 4.53658537,13.996604 4.53658537,12.75 C4.53658537,8.19365081 9.6143315,4.5 15.8780488,4.5 C16.9724146,4.5 18.0305782,4.61275001 19.0317839,4.82315188 C20.5820917,1.97732929 24.0037325,0 27.9756098,0 C30.9363607,0 33.5913651,1.09873029 35.3934147,2.83690249 C37.1736973,1.99142927 39.3006366,1.5 41.5853659,1.5 C47.8490831,1.5 52.9268293,5.19365081 52.9268293,9.75 C52.9268293,9.7882853 52.9264708,9.82650969 52.925756,9.86467149 C56.5237052,11.1220429 58.9756098,13.6216699 58.9756098,16.5 C58.9756098,18.121169 58.19779,19.6222017 56.8754747,20.8488032 C59.9619571,22.3230384 62,24.8633896 62,27.75 C62,32.1309816 57.3056027,35.714395 51.3762897,35.9837464 C50.933952,40.1963805 46.7193123,43.5 41.5853659,43.5 C38.8350128,43.5 36.348496,42.5518779 34.5644599,41.0238011 C32.5059567,42.5518779 29.636899,43.5 26.4634146,43.5 C23.8670953,43.5 21.4745393,42.8653888 19.5629035,41.7977755 Z M9.82926829,57 C7.74136253,57 6.04878049,55.9926407 6.04878049,54.75 C6.04878049,53.5073593 7.74136253,52.5 9.82926829,52.5 C11.9171741,52.5 13.6097561,53.5073593 13.6097561,54.75 C13.6097561,55.9926407 11.9171741,57 9.82926829,57 Z M18.902439,52.5 C15.979371,52.5 13.6097561,51.1568542 13.6097561,49.5 C13.6097561,47.8431458 15.979371,46.5 18.902439,46.5 C21.8255071,46.5 24.195122,47.8431458 24.195122,49.5 C24.195122,51.1568542 21.8255071,52.5 18.902439,52.5 Z" transform="translate(474 44)"/>
    <path fill="#054A91" d="M547.9,113.2 C554.5,105.4 555.2,95.4 550,84.4 L561.2,83.8 C565,95.1 560.8,106.4 552.1,114.5 L547.9,113.2 Z"/>
    <path stroke="#054A91" stroke-width="2.5" d="M19.5629035,41.7977755 C18.8639737,41.9301372 18.1368293,42 17.3902439,42 C11.9616889,42 7.56097561,38.3063492 7.56097561,33.75 C7.56097561,33.3312898 7.59813906,32.9198651 7.66984845,32.5179226 C3.20807451,31.3071372 0,27.9508659 0,24 C0,20.6928825 2.24780747,17.8023808 5.59717093,16.2381007 C4.91668202,15.1786305 4.53658537,13.996604 4.53658537,12.75 C4.53658537,8.19365081 9.6143315,4.5 15.8780488,4.5 C16.9724146,4.5 18.0305782,4.61275001 19.0317839,4.82315188 C20.5820917,1.97732929 24.0037325,0 27.9756098,0 C30.9363607,0 33.5913651,1.09873029 35.3934147,2.83690249 C37.1736973,1.99142927 39.3006366,1.5 41.5853659,1.5 C47.8490831,1.5 52.9268293,5.19365081 52.9268293,9.75 C52.9268293,9.7882853 52.9264708,9.82650969 52.925756,9.86467149 C56.5237052,11.1220429 58.9756098,13.6216699 58.9756098,16.5 C58.9756098,18.121169 58.19779,19.6222017 56.8754747,20.8488032 C59.9619571,22.3230384 62,24.8633896 62,27.75 C62,32.1309816 57.3056027,35.714395 51.3762897,35.9837464 C50.933952,40.1963805 46.7193123,43.5 41.5853659,43.5 C38.8350128,43.5 36.348496,42.5518779 34.5644599,41.0238011 C32.5059567,42.5518779 29.636899,43.5 26.4634146,43.5 C23.8670953,43.5 21.4745393,42.8653888 19.5629035,41.7977755 Z M9.82926829,57 C7.74136253,57 6.04878049,55.9926407 6.04878049,54.75 C6.04878049,53.5073593 7.74136253,52.5 9.82926829,52.5 C11.9171741,52.5 13.6097561,53.5073593 13.6097561,54.75 C13.6097561,55.9926407 11.9171741,57 9.82926829,57 Z M18.902439,52.5 C15.979371,52.5 13.6097561,51.1568542 13.6097561,49.5 C13.6097561,47.8431458 15.979371,46.5 18.902439,46.5 C21.8255071,46.5 24.195122,47.8431458 24.195122,49.5 C24.195122,51.1568542 21.8255071,52.5 18.902439,52.5 Z" transform="translate(580 44)"/>
    <polygon fill="#054A91" points="646.9 107.2 671.7 107.2 671.7 33.1 646.8 33.1 646.8 26.5 679.4 26.5 679.4 113.8 646.6 113.8"/>
    <path fill="#054A91" d="M704.6,116.6 L699.1,111.5 C719.6,95.4 726.9,82.7 726.9,69.9 C726.9,57.3 719.5,44.5 699.5,28.7 L705,23.4 C726.4,41.1 734.9,55.5 734.9,69.6 C734.9,84.1 726.3,98.8 704.6,116.6 Z"/>
  </g>
</svg>
