<svg xmlns="http://www.w3.org/2000/svg" width="123" height="17" viewBox="0 0 123 17">
  <g fill="none" fill-rule="evenodd" transform="translate(0 -3)">
    <path fill="#054A91" d="M1.16353887 18.9666667L1.04718499 17.7166667C3.12493298 17.4 3.60697051 17.1166667 4.17211796 15.7833333L4.02252011 15.75C3.07506702 13.6666667 1.51260054 9.88333333.698123324 7.88333333L2.07774799 7.8C2.8922252 9.88333333 3.8230563 12.25 4.73726542 14.3333333L4.90348525 14.3333333C5.51849866 12.6666667 6.68203753 8.98333333 7.11420912 7.83333333L8.41072386 7.83333333C7.72922252 9.85 6.86487936 12.2833333 5.80107239 14.9833333 4.70402145 17.8666667 3.9227882 18.6333333 1.16353887 18.9666667zM13.9957105 6.51666667L12.6160858 6.51666667 12.7158177 4.25 14.1453083 4.25 13.9957105 6.51666667zM17.0209115 16L9.65737265 16 9.65737265 14.9666667 12.7158177 14.9666667 12.7158177 8.91666667 9.67399464 8.78333333 9.77372654 7.83333333 14.0621984 7.83333333 14.0621984 14.9666667 17.1206434 14.9666667 17.0209115 16zM25.0327078 16.1833333C19.9297587 16.1666667 18.550134 14.6833333 18.550134 12.0333333 18.550134 9.55 20.2788204 7.63333333 22.3898123 7.63333333 24.6171582 7.63333333 25.7474531 9.43333333 25.4482574 12.1333333L19.8798928 12.2666667C20.0128686 14.2 21.2262735 14.9333333 25.1656836 15.0333333L25.0327078 16.1833333zM22.1571046 8.75C20.8107239 8.75 19.9796247 9.68333333 19.8798928 11.4333333 20.8107239 11.4 23.0380697 11.3333333 24.1849866 11.3 24.1683646 9.73333333 23.5201072 8.75 22.1571046 8.75z"/>
    <polygon fill="#054A91" points="34.275 16 27.725 16 27.725 14.967 30.368 14.967 30.368 5.45 27.858 5.333 27.975 4.367 31.731 4.367 31.731 14.967 34.391 14.967"/>
    <path fill="#054A91" d="M39.7431635 15.0833333C40.4246649 15.0833333 41.0563003 14.7833333 41.5549598 14.3833333 41.5217158 12.9666667 41.5050938 11.3166667 41.5050938 9.03333333 41.0396783 8.88333333 40.5908847 8.8 40.1587131 8.8 38.6627346 8.8 37.4991957 9.91666667 37.4991957 11.9833333 37.4991957 14.0666667 38.4300268 15.0833333 39.7431635 15.0833333zM41.7045576 16.0333333L41.6214477 15.1833333C41.0396783 15.7333333 40.2252011 16.2 39.227882 16.2 37.4659517 16.2 36.169437 14.75 36.169437 12.3333333 36.169437 9.35 38.2970509 7.65 40.7737265 7.65 41.0230563 7.65 41.2723861 7.66666667 41.5050938 7.7L41.5050938 4.35 42.8514745 4.23333333 42.8514745 7.86666667C42.8514745 11.5333333 42.8847185 14.1166667 42.9678284 15.9666667L41.7045576 16.0333333zM50.597319 3.91666667L51.5115282 4.76666667C48.1040214 7.43333333 46.8906166 9.56666667 46.8906166 11.6833333 46.8906166 13.8 48.1206434 15.9333333 51.4616622 18.5833333L50.5308311 19.4333333C46.9737265 16.5 45.5608579 14.1 45.5608579 11.7333333 45.5608579 9.31666667 47.0069705 6.86666667 50.597319 3.91666667z"/>
    <polygon fill="#054A91" points="54.803 18.983 54.803 4.417 60.238 4.417 60.238 5.517 56.099 5.517 56.099 17.883 60.305 17.883 60.188 18.983"/>
    <path stroke="#054A91" stroke-width=".5" d="M3.25174267,6.96629592 C3.13556667,6.98835619 3.01470084,7 2.89060354,7 C1.98827001,7 1.25678415,6.38439153 1.25678415,5.625 C1.25678415,5.55521497 1.26296145,5.48664418 1.27488098,5.41965377 C0.533245629,5.2178562 0,4.65847765 0,4 C0,3.44881375 0.373630196,2.96706346 0.930360851,2.70635012 C0.817250095,2.52977175 0.75407049,2.33276734 0.75407049,2.125 C0.75407049,1.36560847 1.59809263,0.75 2.63924671,0.75 C2.82115202,0.75 2.99703981,0.768791668 3.16346006,0.803858646 C3.42115196,0.329554882 3.98989655,0 4.65010135,0 C5.14223689,0 5.5835513,0.183121716 5.8830877,0.472817082 C6.17900599,0.331904879 6.5325455,0.25 6.91231282,0.25 C7.9534669,0.25 8.79748905,0.865608469 8.79748905,1.625 C8.79748905,1.63138088 8.79742946,1.63775161 8.79731066,1.64411191 C9.39536119,1.85367381 9.80291637,2.27027832 9.80291637,2.75 C9.80291637,3.02019484 9.6736273,3.27036696 9.45383226,3.47480053 C9.96686686,3.7205064 10.30563,4.14389827 10.30563,4.625 C10.30563,5.3551636 9.52532807,5.95239916 8.5397586,5.99729106 C8.46623331,6.69939676 7.76567657,7.25 6.91231282,7.25 C6.45514958,7.25 6.04184117,7.09197965 5.74529897,6.83730018 C5.4031349,7.09197965 4.92624058,7.25 4.39874452,7.25 C3.96718474,7.25 3.56949447,7.14423146 3.25174267,6.96629592 Z M1.63381939,9.5 C1.28676803,9.5 1.00542732,9.33210678 1.00542732,9.125 C1.00542732,8.91789322 1.28676803,8.75 1.63381939,8.75 C1.98087075,8.75 2.26221147,8.91789322 2.26221147,9.125 C2.26221147,9.33210678 1.98087075,9.5 1.63381939,9.5 Z M3.14196037,8.75 C2.65608847,8.75 2.26221147,8.52614237 2.26221147,8.25 C2.26221147,7.97385763 2.65608847,7.75 3.14196037,7.75 C3.62783228,7.75 4.02170928,7.97385763 4.02170928,8.25 C4.02170928,8.52614237 3.62783228,8.75 3.14196037,8.75 Z" transform="translate(61.169 7.333)"/>
    <path fill="#054A91" d="M73.4525469,18.8666667 C74.5495979,17.5666667 74.6659517,15.9 73.8016086,14.0666667 L75.6632708,13.9666667 C76.2949062,15.85 75.5967828,17.7333333 74.1506702,19.0833333 L73.4525469,18.8666667 Z"/>
    <path stroke="#054A91" stroke-width=".5" d="M3.25174267,6.96629592 C3.13556667,6.98835619 3.01470084,7 2.89060354,7 C1.98827001,7 1.25678415,6.38439153 1.25678415,5.625 C1.25678415,5.55521497 1.26296145,5.48664418 1.27488098,5.41965377 C0.533245629,5.2178562 0,4.65847765 0,4 C0,3.44881375 0.373630196,2.96706346 0.930360851,2.70635012 C0.817250095,2.52977175 0.75407049,2.33276734 0.75407049,2.125 C0.75407049,1.36560847 1.59809263,0.75 2.63924671,0.75 C2.82115202,0.75 2.99703981,0.768791668 3.16346006,0.803858646 C3.42115196,0.329554882 3.98989655,0 4.65010135,0 C5.14223689,0 5.5835513,0.183121716 5.8830877,0.472817082 C6.17900599,0.331904879 6.5325455,0.25 6.91231282,0.25 C7.9534669,0.25 8.79748905,0.865608469 8.79748905,1.625 C8.79748905,1.63138088 8.79742946,1.63775161 8.79731066,1.64411191 C9.39536119,1.85367381 9.80291637,2.27027832 9.80291637,2.75 C9.80291637,3.02019484 9.6736273,3.27036696 9.45383226,3.47480053 C9.96686686,3.7205064 10.30563,4.14389827 10.30563,4.625 C10.30563,5.3551636 9.52532807,5.95239916 8.5397586,5.99729106 C8.46623331,6.69939676 7.76567657,7.25 6.91231282,7.25 C6.45514958,7.25 6.04184117,7.09197965 5.74529897,6.83730018 C5.4031349,7.09197965 4.92624058,7.25 4.39874452,7.25 C3.96718474,7.25 3.56949447,7.14423146 3.25174267,6.96629592 Z M1.63381939,9.5 C1.28676803,9.5 1.00542732,9.33210678 1.00542732,9.125 C1.00542732,8.91789322 1.28676803,8.75 1.63381939,8.75 C1.98087075,8.75 2.26221147,8.91789322 2.26221147,9.125 C2.26221147,9.33210678 1.98087075,9.5 1.63381939,9.5 Z M3.14196037,8.75 C2.65608847,8.75 2.26221147,8.52614237 2.26221147,8.25 C2.26221147,7.97385763 2.65608847,7.75 3.14196037,7.75 C3.62783228,7.75 4.02170928,7.97385763 4.02170928,8.25 C4.02170928,8.52614237 3.62783228,8.75 3.14196037,8.75 Z" transform="translate(78.788 7.333)"/>
    <path fill="#054A91" d="M91.0718499,18.8666667 C92.1689008,17.5666667 92.2852547,15.9 91.4209115,14.0666667 L93.2825737,13.9666667 C93.9142091,15.85 93.2160858,17.7333333 91.7699732,19.0833333 L91.0718499,18.8666667 Z"/>
    <path stroke="#054A91" stroke-width=".5" d="M3.25174267,6.96629592 C3.13556667,6.98835619 3.01470084,7 2.89060354,7 C1.98827001,7 1.25678415,6.38439153 1.25678415,5.625 C1.25678415,5.55521497 1.26296145,5.48664418 1.27488098,5.41965377 C0.533245629,5.2178562 0,4.65847765 0,4 C0,3.44881375 0.373630196,2.96706346 0.930360851,2.70635012 C0.817250095,2.52977175 0.75407049,2.33276734 0.75407049,2.125 C0.75407049,1.36560847 1.59809263,0.75 2.63924671,0.75 C2.82115202,0.75 2.99703981,0.768791668 3.16346006,0.803858646 C3.42115196,0.329554882 3.98989655,0 4.65010135,0 C5.14223689,0 5.5835513,0.183121716 5.8830877,0.472817082 C6.17900599,0.331904879 6.5325455,0.25 6.91231282,0.25 C7.9534669,0.25 8.79748905,0.865608469 8.79748905,1.625 C8.79748905,1.63138088 8.79742946,1.63775161 8.79731066,1.64411191 C9.39536119,1.85367381 9.80291637,2.27027832 9.80291637,2.75 C9.80291637,3.02019484 9.6736273,3.27036696 9.45383226,3.47480053 C9.96686686,3.7205064 10.30563,4.14389827 10.30563,4.625 C10.30563,5.3551636 9.52532807,5.95239916 8.5397586,5.99729106 C8.46623331,6.69939676 7.76567657,7.25 6.91231282,7.25 C6.45514958,7.25 6.04184117,7.09197965 5.74529897,6.83730018 C5.4031349,7.09197965 4.92624058,7.25 4.39874452,7.25 C3.96718474,7.25 3.56949447,7.14423146 3.25174267,6.96629592 Z M1.63381939,9.5 C1.28676803,9.5 1.00542732,9.33210678 1.00542732,9.125 C1.00542732,8.91789322 1.28676803,8.75 1.63381939,8.75 C1.98087075,8.75 2.26221147,8.91789322 2.26221147,9.125 C2.26221147,9.33210678 1.98087075,9.5 1.63381939,9.5 Z M3.14196037,8.75 C2.65608847,8.75 2.26221147,8.52614237 2.26221147,8.25 C2.26221147,7.97385763 2.65608847,7.75 3.14196037,7.75 C3.62783228,7.75 4.02170928,7.97385763 4.02170928,8.25 C4.02170928,8.52614237 3.62783228,8.75 3.14196037,8.75 Z" transform="translate(96.408 7.333)"/>
    <polygon fill="#054A91" points="107.528 17.867 111.65 17.867 111.65 5.517 107.511 5.517 107.511 4.417 112.93 4.417 112.93 18.967 107.478 18.967"/>
    <path fill="#054A91" d="M117.118499,19.4333333 L116.20429,18.5833333 C119.611796,15.9 120.825201,13.7833333 120.825201,11.65 C120.825201,9.55 119.595174,7.41666667 116.270777,4.78333333 L117.184987,3.9 C120.742091,6.85 122.15496,9.25 122.15496,11.6 C122.15496,14.0166667 120.725469,16.4666667 117.118499,19.4333333 Z"/>
  </g>
</svg>
